<svg width="0" height="0" class="hidden">
	<symbol xmlns="http://www.w3.org/2000/svg" viewBox="0 0 430.114 430.114" id="location">
		<path d="M356.208 107.051c-1.531-5.738-4.64-11.852-6.94-17.205C321.746 23.704 261.611 0 213.055 0 148.054 0 76.463 43.586 66.905 133.427v18.355c0 .766.264 7.647.639 11.089 5.358 42.816 39.143 88.32 64.375 131.136 27.146 45.873 55.314 90.999 83.221 136.106 17.208-29.436 34.354-59.259 51.17-87.933 4.583-8.415 9.903-16.825 14.491-24.857 3.058-5.348 8.9-10.696 11.569-15.672 27.145-49.699 70.838-99.782 70.838-149.104v-20.262c.001-5.347-6.627-24.081-7-25.234zm-141.963 92.142c-19.107 0-40.021-9.554-50.344-35.939-1.538-4.2-1.414-12.617-1.414-13.388v-11.852c0-33.636 28.56-48.932 53.406-48.932 30.588 0 54.245 24.472 54.245 55.06 0 30.587-25.305 55.051-55.893 55.051z">
		</path>
	</symbol>
	<symbol viewBox="0 0 512 512" xmlns="http://www.w3.org/2000/svg" id="linkedin">
		<path d="M256 0C114.637 0 0 114.637 0 256s114.637 256 256 256 256-114.637 256-256S397.363 0 256 0zm-74.39 387h-62.348V199.426h62.347zm-31.173-213.188h-.406c-20.922 0-34.453-14.402-34.453-32.402 0-18.406 13.945-32.41 35.274-32.41 21.328 0 34.453 14.004 34.859 32.41 0 18-13.531 32.403-35.274 32.403zM406.423 387h-62.34V286.652c0-25.218-9.027-42.418-31.586-42.418-17.223 0-27.48 11.602-31.988 22.801-1.649 4.008-2.051 9.61-2.051 15.215V387h-62.344s.817-169.977 0-187.574h62.344v26.558c8.285-12.78 23.11-30.96 56.188-30.96 41.02 0 71.777 26.808 71.777 84.421zm0 0">
		</path>
	</symbol>
	<symbol xmlns="http://www.w3.org/2000/svg" viewBox="0 0 438.549 438.549" id="github">
		<path d="M409.132 114.573c-19.608-33.596-46.205-60.194-79.798-79.8-33.598-19.607-70.277-29.408-110.063-29.408-39.781 0-76.472 9.804-110.063 29.408-33.596 19.605-60.192 46.204-79.8 79.8C9.803 148.168 0 184.854 0 224.63c0 47.78 13.94 90.745 41.827 128.906 27.884 38.164 63.906 64.572 108.063 79.227 5.14.954 8.945.283 11.419-1.996 2.475-2.282 3.711-5.14 3.711-8.562 0-.571-.049-5.708-.144-15.417a2549.81 2549.81 0 0 1-.144-25.406l-6.567 1.136c-4.187.767-9.469 1.092-15.846 1-6.374-.089-12.991-.757-19.842-1.999-6.854-1.231-13.229-4.086-19.13-8.559-5.898-4.473-10.085-10.328-12.56-17.556l-2.855-6.57c-1.903-4.374-4.899-9.233-8.992-14.559-4.093-5.331-8.232-8.945-12.419-10.848l-1.999-1.431c-1.332-.951-2.568-2.098-3.711-3.429-1.142-1.331-1.997-2.663-2.568-3.997-.572-1.335-.098-2.43 1.427-3.289 1.525-.859 4.281-1.276 8.28-1.276l5.708.853c3.807.763 8.516 3.042 14.133 6.851 5.614 3.806 10.229 8.754 13.846 14.842 4.38 7.806 9.657 13.754 15.846 17.847 6.184 4.093 12.419 6.136 18.699 6.136 6.28 0 11.704-.476 16.274-1.423 4.565-.952 8.848-2.383 12.847-4.285 1.713-12.758 6.377-22.559 13.988-29.41-10.848-1.14-20.601-2.857-29.264-5.14-8.658-2.286-17.605-5.996-26.835-11.14-9.235-5.137-16.896-11.516-22.985-19.126-6.09-7.614-11.088-17.61-14.987-29.979-3.901-12.374-5.852-26.648-5.852-42.826 0-23.035 7.52-42.637 22.557-58.817-7.044-17.318-6.379-36.732 1.997-58.24 5.52-1.715 13.706-.428 24.554 3.853 10.85 4.283 18.794 7.952 23.84 10.994 5.046 3.041 9.089 5.618 12.135 7.708 17.705-4.947 35.976-7.421 54.818-7.421s37.117 2.474 54.823 7.421l10.849-6.849c7.419-4.57 16.18-8.758 26.262-12.565 10.088-3.805 17.802-4.853 23.134-3.138 8.562 21.509 9.325 40.922 2.279 58.24 15.036 16.18 22.559 35.787 22.559 58.817 0 16.178-1.958 30.497-5.853 42.966-3.9 12.471-8.941 22.457-15.125 29.979-6.191 7.521-13.901 13.85-23.131 18.986-9.232 5.14-18.182 8.85-26.84 11.136-8.662 2.286-18.415 4.004-29.263 5.146 9.894 8.562 14.842 22.077 14.842 40.539v60.237c0 3.422 1.19 6.279 3.572 8.562 2.379 2.279 6.136 2.95 11.276 1.995 44.163-14.653 80.185-41.062 108.068-79.226 27.88-38.161 41.825-81.126 41.825-128.906-.01-39.771-9.818-76.454-29.414-110.049z">
		</path>
	</symbol>
	<symbol xmlns="http://www.w3.org/2000/svg" viewBox="0 0 430.123 430.123" id="skype">
		<path d="M412.164 246.198a199.284 199.284 0 0 0 2.45-31.148c0-110.215-89.342-199.555-199.56-199.555-10.576 0-20.995.871-31.141 2.458C165.534 6.581 143.842 0 120.595 0 53.996 0 .005 53.984.005 120.59c0 23.242 6.585 44.916 17.952 63.332-1.573 10.172-2.439 20.528-2.439 31.132 0 110.223 89.34 199.536 199.532 199.536 10.585 0 21.007-.816 31.152-2.417 18.398 11.35 40.072 17.949 63.314 17.949 66.617 0 120.602-53.998 120.602-120.602.005-23.251-6.576-44.92-17.954-63.322zM309.801 305.81c-8.442 12.153-20.843 21.65-37.047 28.479-16.237 6.847-35.428 10.254-57.59 10.254-26.562 0-48.554-4.648-65.913-14.034-12.305-6.721-22.313-15.737-30.007-26.98-7.71-11.252-11.619-22.271-11.619-33.015 0-6.338 2.417-11.85 7.122-16.344 4.754-4.527 10.877-6.796 18.104-6.796 5.92 0 11.005 1.783 15.145 5.316 4.109 3.532 7.556 8.667 10.375 15.443 3.379 7.85 7.049 14.412 10.954 19.648 3.881 5.171 9.343 9.488 16.417 12.867 6.996 3.388 16.307 5.082 27.958 5.082 15.945 0 28.831-3.449 38.693-10.253 9.912-6.866 14.673-15.22 14.673-25.314 0-8.051-2.567-14.445-7.831-19.43-5.312-5.05-12.172-8.896-20.685-11.579-8.546-2.711-20.02-5.586-34.399-8.615-19.308-4.214-35.456-9.119-48.533-14.752-13.094-5.654-23.522-13.383-31.251-23.146-7.745-9.859-11.607-22.113-11.607-36.627 0-13.84 4.077-26.217 12.239-36.989 8.158-10.802 19.961-19.07 35.351-24.829 15.336-5.757 33.391-8.637 54.075-8.637 16.541 0 30.849 1.914 42.96 5.722 12.078 3.836 22.146 8.898 30.196 15.25 7.999 6.338 13.885 13.023 17.613 20.038 3.725 7.036 5.601 13.908 5.601 20.614 0 6.235-2.417 11.89-7.127 16.846-4.709 4.963-10.733 7.493-17.768 7.47-6.342 0-11.317-1.463-14.767-4.56-3.36-2.996-6.889-7.766-10.706-14.414-4.825-9.276-10.604-16.503-17.324-21.672-6.543-5.073-17.338-7.714-32.359-7.682-13.898 0-25.018 2.84-33.411 8.394-8.445 5.643-12.482 12.19-12.501 19.861.014 4.807 1.396 8.86 4.177 12.326 2.824 3.498 6.753 6.529 11.803 9.084a81.825 81.825 0 0 0 15.355 6.046c5.225 1.481 13.894 3.622 25.944 6.457 15.112 3.257 28.819 6.896 41.136 10.862 12.293 3.986 22.784 8.793 31.451 14.52 8.736 5.71 15.564 12.99 20.438 21.783 4.909 8.807 7.354 19.564 7.354 32.222.019 15.242-4.227 28.95-12.689 41.084z">
		</path>
	</symbol>
	<symbol xmlns="http://www.w3.org/2000/svg" viewBox="0 0 35 35" id="mobile">
		<path d="M25.302 0H9.698a2.37 2.37 0 0 0-2.364 2.364v30.271A2.371 2.371 0 0 0 9.698 35h15.604a2.37 2.37 0 0 0 2.364-2.364V2.364A2.37 2.37 0 0 0 25.302 0zM15.004 1.704h4.992a.286.286 0 0 1 0 .573h-4.992a.286.286 0 1 1 0-.573zM17.5 33.818a1.182 1.182 0 1 1 0-2.364 1.182 1.182 0 0 1 0 2.364zm8.521-3.193H8.979V3.749h17.042v26.876z">
		</path>
	</symbol>
	<symbol xmlns="http://www.w3.org/2000/svg" viewBox="0 0 14 14" id="mail">
		<g>
			<path d="M7 9L5.268 7.484.316 11.729c.18.167.423.271.691.271h11.986c.267 0 .509-.104.688-.271L8.732 7.484 7 9z">
			</path>
			<path d="M13.684 2.271A1.007 1.007 0 0 0 12.993 2H1.007c-.267 0-.509.104-.689.273L7 8l6.684-5.729zM0 2.878v8.308l4.833-4.107zm9.167 4.201L14 11.186V2.875z">
			</path>
		</g>
	</symbol>
	<symbol xmlns="http://www.w3.org/2000/svg" viewBox="0 0 512 512" id="soft-skills">
		<path d="M309.561 324.814a10.032 10.032 0 0 0-4.315-.299c-.168-.008-.337-.012-.505-.019 12.981-12.682 21.061-30.361 21.061-49.899V175c0-5.522-4.478-10-10-10h-74.075c-30.617 0-55.526 24.909-55.526 55.526v54.07c0 19.538 8.08 37.217 21.061 49.899-.168.007-.337.011-.505.019a10.048 10.048 0 0 0-4.315.299c-51.696 4.641-92.352 48.2-92.352 101.084V475c0 5.522 4.478 10 10 10h271.824c5.522 0 10-4.478 10-10v-49.102c-.002-52.883-40.657-96.443-92.353-101.084zm-103.362-90.281v-14.007c0-19.589 15.938-35.526 35.526-35.526H305.8v26.761c0 13.522-11.001 24.523-24.523 24.523h-75.078v-1.751zm0 40.064v-18.313h75.078a44.256 44.256 0 0 0 24.523-7.388v25.7c0 27.46-22.341 49.801-49.801 49.801s-49.8-22.34-49.8-49.8zm76.359 69.8L256 370.955l-26.558-26.558h53.116zM381.912 465H130.088v-28.78h81.604c5.522 0 10-4.478 10-10s-4.478-10-10-10h-81.009c4.42-37.167 33.939-66.726 71.087-71.21l47.159 47.159c1.953 1.952 4.512 2.929 7.071 2.929s5.118-.977 7.071-2.929l47.159-47.159c40.323 4.867 71.682 39.274 71.682 80.888V465z">
		</path>
		<path d="M263.069 419.15c-1.859-1.86-4.439-2.93-7.069-2.93s-5.21 1.07-7.07 2.93-2.93 4.44-2.93 7.07 1.069 5.21 2.93 7.07c1.86 1.859 4.44 2.93 7.07 2.93s5.21-1.07 7.069-2.93c1.86-1.86 2.931-4.44 2.931-7.07s-1.07-5.21-2.931-7.07zM256.127 27c-20.953 0-38 17.047-38 38 0 17.492 11.884 32.253 28 36.655v24.423c0 5.522 4.478 10 10 10s10-4.478 10-10v-24.423c16.116-4.402 28-19.163 28-36.655 0-20.953-17.047-38-38-38zm0 56c-9.925 0-18-8.075-18-18s8.075-18 18-18 18 8.075 18 18-8.075 18-18 18zm200.756 22.001c-7.178-7.177-16.72-11.13-26.87-11.13-10.15 0-19.692 3.953-26.87 11.131-12.368 12.369-14.402 31.209-6.12 45.718l-17.27 17.27c-3.905 3.905-3.905 10.237 0 14.143a9.98 9.98 0 0 0 7.072 2.928 9.97 9.97 0 0 0 7.071-2.929l17.262-17.262c5.68 3.257 12.131 5.002 18.855 5.002 10.15 0 19.692-3.953 26.869-11.13 7.179-7.177 11.132-16.72 11.132-26.87 0-10.15-3.953-19.693-11.131-26.871zm-14.141 39.6c-7.018 7.018-18.438 7.018-25.455 0-7.019-7.019-7.019-18.439-.001-25.457 3.509-3.51 8.118-5.264 12.728-5.264s9.219 1.754 12.728 5.264c3.4 3.4 5.273 7.92 5.273 12.729 0 4.808-1.873 9.328-5.273 12.728zM474 267.833c-17.492 0-32.253 11.884-36.655 28h-24.423c-5.522 0-10 4.478-10 10s4.478 10 10 10h24.423c4.402 16.116 19.163 28 36.655 28 20.953 0 38-17.047 38-38s-17.047-38-38-38zm0 56c-9.925 0-18-8.075-18-18s8.075-18 18-18 18 8.075 18 18-8.075 18-18 18zm-91.931-25.073c-1.859-1.86-4.439-2.93-7.069-2.93s-5.21 1.069-7.07 2.93a10.077 10.077 0 0 0-2.93 7.07c0 2.64 1.069 5.21 2.93 7.069 1.86 1.871 4.44 2.931 7.07 2.931s5.21-1.061 7.069-2.931c1.86-1.859 2.931-4.439 2.931-7.069s-1.07-5.2-2.931-7.07zm-282.991-3.181H74.655c-4.402-16.116-19.163-28-36.655-28-20.953 0-38 17.047-38 38s17.047 38 38 38c17.492 0 32.253-11.884 36.655-28h24.423c5.522 0 10-4.478 10-10s-4.477-10-10-10zm-61.078 28c-9.925 0-18-8.075-18-18s8.075-18 18-18 18 8.075 18 18-8.075 18-18 18zm93.641-156.554l-17.262-17.261c3.258-5.68 5.002-12.132 5.002-18.856 0-10.15-3.953-19.693-11.131-26.871-7.178-7.177-16.72-11.13-26.87-11.13s-19.692 3.953-26.87 11.131c-14.815 14.816-14.815 38.924 0 53.74 7.178 7.177 16.72 11.13 26.871 11.13 6.724 0 13.176-1.745 18.856-5.002l17.262 17.262c1.953 1.952 4.512 2.929 7.071 2.929s5.118-.977 7.071-2.929c3.905-3.905 3.905-10.237 0-14.143zm-37.527-23.393l-.005.005c-7.018 7.02-18.438 7.02-25.455 0-7.019-7.019-7.019-18.439-.001-25.457a17.944 17.944 0 0 1 12.728-5.264c4.61 0 9.219 1.755 12.728 5.264 3.4 3.4 5.273 7.92 5.273 12.729 0 4.805-1.872 9.324-5.268 12.723z">
		</path>
	</symbol>
	<symbol xmlns="http://www.w3.org/2000/svg" viewBox="0 0 512.001 512.001" id="education">
		<path d="M467.309 16.768H221.454c-6.128 0-11.095 4.967-11.095 11.095v86.451l12.305-7.64a30.76 30.76 0 0 1 9.884-3.978V38.958h223.665v160.016H232.549v-25.89l-22.19 13.778v23.208c0 6.128 4.967 11.095 11.095 11.095h245.855c6.127 0 11.095-4.967 11.095-11.095V27.863c0-6.128-4.968-11.095-11.095-11.095z">
		</path>
		<path d="M306.001 78.356a8.535 8.535 0 0 0-11.986-1.418l-38.217 30.133a30.686 30.686 0 0 1 9.301 9.527 31.009 31.009 0 0 1 1.834 3.431l37.651-29.687a8.533 8.533 0 0 0 1.417-11.986z">
		</path>
		<circle cx="121.535" cy="31.935" r="31.935">
		</circle>
		<path d="M252.01 124.728c-4.489-7.229-13.987-9.451-21.218-4.963l-31.206 19.375-.144-28.811c-.101-20.005-16.458-36.281-36.464-36.281h-15.159c-12.951 33.588-8.779 21.12-19.772 49.63l4.623-20.131a6.422 6.422 0 0 0-.655-4.43l-6.264-11.393 5.559-10.109c.829-1.508-.264-3.356-1.985-3.356h-15.271c-1.72 0-2.815 1.848-1.985 3.356l5.57 10.13-6.276 11.414a6.431 6.431 0 0 0-.672 4.347l4.005 20.172-19.137-49.63H80.093c-20.005 0-36.363 16.275-36.464 36.281l-.569 113.2c-.042 8.51 6.821 15.443 15.331 15.486h.079c8.473 0 15.364-6.848 15.406-15.331l.569-113.2v-.053a3.056 3.056 0 0 1 6.113.045l.007 160.381c14.106-.6 27.176 4.488 36.981 13.423v-62.568h7.983v71.773a51.356 51.356 0 0 1 8.914 28.974 51.354 51.354 0 0 1-7.469 26.731c4.866.023 9.592.669 14.099 1.861a51.544 51.544 0 0 1 21.437-11.136c0-279.342-.335-106.627-.335-229.418a3.224 3.224 0 1 1 6.45-.013l.283 56.351a15.407 15.407 0 0 0 23.536 13.013l54.604-33.903c7.228-4.487 9.451-13.988 4.962-21.217z">
		</path>
		<circle cx="429.221" cy="322.831" r="33.803">
		</circle>
		<path d="M511.459 405.811c-.107-21.176-17.421-38.404-38.598-38.404H388.08a51.318 51.318 0 0 1 5.704 23.55c0 9.005-2.405 18.413-7.5 26.782 18.904.764 35.468 10.91 45.149 25.897h40.579v-37.43a3.417 3.417 0 0 1 6.827-.233v.002l.19 37.661h32.621l-.191-37.825zm-220.99-14.855a51.324 51.324 0 0 1 5.894-23.92h-75.267a51.316 51.316 0 0 1 5.437 23.029 51.49 51.49 0 0 1-7.469 26.731c15.558.074 29.912 6.538 40.283 17.267 10.054-9.822 23.759-15.914 38.836-15.995a51.588 51.588 0 0 1-7.714-27.112zm-25.65-102.301c-18.668 0-33.804 15.132-33.804 33.803 0 18.628 15.107 33.803 33.804 33.803 18.518 0 33.803-14.965 33.803-33.803 0-18.65-15.105-33.803-33.803-33.803zm-141.602 101.41a51.344 51.344 0 0 1 5.411-22.98c-1.457-.072 4.672-.049-89.485-.049-21.068 0-38.491 17.138-38.598 38.404l-.192 38.196h32.621l.191-38.031a3.414 3.414 0 0 1 6.827.017v38.014h45.727c9.855-15.754 26.8-25.646 45.243-26.406a51.261 51.261 0 0 1-7.745-27.165zm-40.431-101.41c-18.668 0-33.803 15.134-33.803 33.803 0 18.584 15.046 33.803 33.803 33.803 18.536 0 33.804-15.015 33.804-33.803 0-18.67-15.135-33.803-33.804-33.803zm339.747 185.152c-.105-21.178-17.42-38.406-38.597-38.406h-85.507c-21.176 0-39.601 17.227-39.708 38.404l-.275-.891c-.105-21.092-17.341-38.404-38.597-38.404h-85.507c-21.176 0-39.601 17.227-39.708 38.404L94.442 512h32.621l.191-38.922a2.94 2.94 0 0 1 5.88.015v38.908h86.392v-38.908a3.15 3.15 0 0 1 6.299-.016l.191 38.923h65.134l.191-38.031v-.002a2.94 2.94 0 0 1 5.88.017V512h86.392v-38.016a3.15 3.15 0 0 1 6.299-.016l.191 38.031h32.621l-.191-38.192z">
		</path>
		<circle cx="175.934" cy="389.933" r="34.198">
		</circle>
		<circle cx="342.07" cy="390.821" r="34.198">
		</circle>
	</symbol>
	<symbol viewBox="-4 0 456 456.736" xmlns="http://www.w3.org/2000/svg" id="work">
		<path d="M112.367 64.734c0 17.676-14.324 32-32 32-17.672 0-32-14.324-32-32 0-17.671 14.328-32 32-32 17.676 0 32 14.328 32 32zm-112 352h112v40h-112zm168-48v-98.23l-48-16v-109.77h88c13.254 0 24-10.742 24-24h-208c-13.254 0-24 10.746-24 24v88a8 8 0 0 0 8 8h16v-88h16v248h24V253.191l80 30v85.543zm120-32h160v120h-160zm-160 48h144v72h-144zM368.367 0l-49.68 80.734h33.68v200h32v-200h33.68zm0 0">
		</path>
	</symbol>
	<symbol viewBox="0 0 512 512" xmlns="http://www.w3.org/2000/svg" id="projects">
		<path d="M74.742 328.078a15.016 15.016 0 0 0 2.797 17.34l3.668 3.668c10.598-12.559 22.95-26.188 37.93-41.164 1.058-1.059 2.148-1.57 3.21-2.547L98.75 281.773c-13.719 24.813-21.719 41.766-24.008 46.305zm129.246 64.695c-15.015 15.016-28.61 27.391-41.097 37.997l4.968 4.968a14.993 14.993 0 0 0 17.465 2.735c7.77-4.004 19.988-9.754 45.926-24.2l-24.71-24.71c-.977 1.066-1.49 2.152-2.552 3.21zm-7.996-76.835c-10.84-10.84-41.324-1.122-55.644 13.195-47.907 47.906-69.543 81.87-79.258 101.926a14.992 14.992 0 0 0 2.89 17.14 15.01 15.01 0 0 0 17.165 2.89c19.605-9.519 53.156-31.054 101.632-79.527 15.746-15.753 23.516-45.32 13.227-55.613zM46.82 199.71L4.395 242.138a14.997 14.997 0 0 0-2.383 18.105c3.316 5.805 10.261 8.762 16.87 6.992 22.93-6.148 43.106-8.746 56.692-5.261 19.328-34.364 40.098-65.996 62.094-94.73-12.723-8.157-54.766-3.614-90.848 32.468zm207.075 310.68a14.971 14.971 0 0 0 17.347-2.785l42.43-42.425c32.848-32.856 38.629-75.246 31.176-88.688-32.047 24.153-64.512 44.547-94.801 61.621 2.09 11.801.7 23.25-4.242 56.688a14.968 14.968 0 0 0 8.09 15.59zM297.8 150.469c-17.542 17.547-17.542 46.09 0 63.636 17.548 17.547 46.095 17.547 63.641 0s17.547-46.09 0-63.636-46.093-17.547-63.64 0zM511.117 14.633c-.539-7.418-6.445-13.281-13.84-13.836-36.84-2.774-73.535 1.758-109.504 12.758 2.707 24.71 15.489 51.453 37.309 73.273 22.082 22.078 49.55 34.856 74.703 37.246 9.688-33.949 14.281-70.308 11.332-109.441zm0 0">
		</path>
		<path d="M403.871 108.043c-24.96-24.961-40.203-54.898-45.094-84.047-90.074 36.942-176.3 117.613-244.437 230.941l33.851 33.852c23.13-9.39 51.207-11.871 69.016 5.934 17.832 17.836 15.305 45.902 5.918 69l34.965 34.965c87.195-52.551 188.71-135.344 231.879-245.497-29.86-4.511-60.73-19.78-86.098-45.148zM382.652 235.32c-29.238 29.239-76.82 29.239-106.062 0-29.242-29.242-29.242-76.828 0-106.066s76.824-29.238 106.062 0c29.243 29.242 29.243 76.824 0 106.066zm0 0">
		</path>
	</symbol>
	<symbol xmlns="http://www.w3.org/2000/svg" viewBox="0 0 512 512" id="tech-skills">
		<path d="M256 181c-33.091 0-60 26.909-60 60s26.909 60 60 60 60-26.909 60-60-26.909-60-60-60z">
		</path>
		<path d="M499.461 211.205l-39.848-6.475c-4.995-19.893-12.847-38.789-23.408-56.411l22.91-32.095a14.992 14.992 0 0 0-1.597-19.321l-42.422-42.422c-5.215-5.2-13.374-5.889-19.321-1.597l-32.095 22.91c-17.622-10.562-36.519-18.413-56.411-23.408l-6.475-39.848A14.99 14.99 0 0 0 286 0h-60a14.992 14.992 0 0 0-14.795 12.539l-6.475 39.848c-19.893 4.995-38.789 12.847-56.411 23.408l-32.095-22.91c-5.962-4.292-14.15-3.604-19.321 1.597L54.481 96.903a14.993 14.993 0 0 0-1.597 19.321l22.91 32.095c-10.562 17.622-18.413 36.519-23.408 56.411l-39.848 6.475A14.992 14.992 0 0 0 0 226v60a14.992 14.992 0 0 0 12.539 14.795l39.848 6.475c4.995 19.893 12.847 38.789 23.408 56.411l-22.91 32.095a14.992 14.992 0 0 0 1.597 19.321l42.422 42.422c5.171 5.171 13.359 5.83 19.321 1.597l32.095-22.91c17.622 10.562 36.519 18.413 56.411 23.408l6.475 39.848A14.99 14.99 0 0 0 226 512h60a14.992 14.992 0 0 0 14.795-12.539l6.475-39.848c19.893-4.995 38.789-12.847 56.411-23.408l32.095 22.91c5.947 4.233 14.106 3.574 19.321-1.597l42.422-42.422a14.993 14.993 0 0 0 1.597-19.321l-22.91-32.095c10.562-17.622 18.413-36.519 23.408-56.411l39.848-6.475A14.99 14.99 0 0 0 512 286v-60a14.992 14.992 0 0 0-12.539-14.795zM256 421c-90.981 0-165-74.019-165-165S165.019 91 256 91s165 74.019 165 165-74.019 165-165 165z">
		</path>
		<path d="M325.29 297.732C308.773 317.866 284.017 331 256 331c-28.017 0-52.773-13.134-69.291-33.268-14.379 12.744-24.868 29.451-30.654 48.197C180.784 373.387 216.224 391 256 391s75.216-17.613 99.944-45.071c-5.786-18.746-16.274-35.453-30.654-48.197z">
		</path>
	</symbol>
	<symbol xmlns="http://www.w3.org/2000/svg" viewBox="0 0 489.25 489.25" id="objective">
		<path d="M240.25 216.55c-4-1.1-8.1-1.7-12.4-1.7-25.7 0-46.6 20.9-46.6 46.6 0 25.7 20.9 46.6 46.6 46.6s46.6-20.9 46.6-46.6c0-4.3-.6-8.5-1.7-12.4l129.8-129.8 21 2.8 65.7-65.7-49.7-6.6-6.6-49.7-65.7 65.7 2.8 21-129.8 129.8z">
		</path>
		<path d="M232.85 171.95l38.4-38.4c-47.1-16-101.4-5.2-138.9 32.4-52.7 52.7-52.7 138.3 0 191s138.3 52.7 191 0c37.6-37.6 48.4-91.8 32.4-139l-38.4 38.4c1.4 24.6-7.3 49.7-26.1 68.5-35 35-91.8 35-126.8 0s-35-91.8 0-126.8c18.8-18.8 43.8-27.5 68.4-26.1z">
		</path>
		<path d="M388.85 184.95c31.5 66.2 19.8 147.7-35 202.5-69.6 69.6-182.4 69.6-252 0s-69.6-182.4 0-252c54.8-54.8 136.3-66.4 202.5-35l36.7-36.7c-87-49.9-200-37.7-274.3 36.6-89 89-89 233.2 0 322.1 89 89 233.2 89 322.1 0 74.3-74.3 86.5-187.3 36.6-274.3l-36.6 36.8z">
		</path>
	</symbol>
	<symbol xmlns="http://www.w3.org/2000/svg" viewBox="0 0 470 470" id="languages">
		<path d="M432.5 227.5h-77.031c-.611-37.438-5.782-73.616-14.771-105.694h50.518c4.143 0 7.5-3.357 7.5-7.5s-3.357-7.5-7.5-7.5h-55.112c-8.018-24.165-18.316-45.521-30.553-62.656a7.5 7.5 0 0 0-12.207 8.717c10.618 14.868 19.688 33.199 26.965 53.939H242.5V37.5c0-4.143-3.357-7.5-7.5-7.5s-7.5 3.357-7.5 7.5v69.306h-77.81c7.277-20.74 16.347-39.071 26.965-53.939a7.5 7.5 0 0 0-12.207-8.717c-12.237 17.135-22.535 38.492-30.553 62.656H78.783c-4.143 0-7.5 3.357-7.5 7.5s3.357 7.5 7.5 7.5h50.518c-8.988 32.078-14.159 68.256-14.771 105.694H37.5c-4.143 0-7.5 3.357-7.5 7.5s3.357 7.5 7.5 7.5h77.031c.611 37.438 5.782 73.616 14.771 105.694H78.783c-4.143 0-7.5 3.357-7.5 7.5s3.357 7.5 7.5 7.5h55.112c8.019 24.169 18.32 45.529 30.56 62.666a7.494 7.494 0 0 0 6.11 3.142 7.502 7.502 0 0 0 6.097-11.86c-10.621-14.869-19.693-33.204-26.972-53.947h77.81V432.5c0 4.143 3.357 7.5 7.5 7.5s7.5-3.357 7.5-7.5v-69.306h77.81c-7.278 20.744-16.351 39.078-26.972 53.947a7.502 7.502 0 0 0 6.097 11.86 7.492 7.492 0 0 0 6.11-3.142c12.24-17.137 22.54-38.497 30.56-62.666h55.112c4.143 0 7.5-3.357 7.5-7.5s-3.357-7.5-7.5-7.5h-50.519c8.989-32.078 14.16-68.256 14.771-105.694H432.5c4.143 0 7.5-3.357 7.5-7.5s-3.357-7.499-7.5-7.499zM325.14 121.806c9.313 31.683 14.695 67.958 15.326 105.694H242.5V121.806h82.64zm-180.28 0h82.64V227.5h-97.966c.632-37.737 6.013-74.011 15.326-105.694zm0 226.388c-9.313-31.683-14.695-67.958-15.326-105.694H227.5v105.694h-82.64zm180.28 0H242.5V242.5h97.966c-.632 37.737-6.013 74.012-15.326 105.694z">
		</path>
		<path d="M401.17 68.83C356.784 24.444 297.771 0 235 0S113.216 24.444 68.83 68.83 0 172.229 0 235.001c0 46.271 13.391 90.899 38.764 129.316l-28.718 86.148a7.502 7.502 0 0 0 9.488 9.488l86.15-28.716C144.102 456.609 188.729 470 235 470c62.771 0 121.784-24.444 166.17-68.83S470 297.771 470 235.001c0-62.772-24.444-121.785-68.83-166.171zM235 455c-44.491 0-87.355-13.222-123.961-38.235a7.5 7.5 0 0 0-6.603-.923L29.02 440.979l25.14-75.414a7.506 7.506 0 0 0-.923-6.604C28.222 322.357 15 279.492 15 235.001 15 113.692 113.691 15 235 15s220 98.692 220 220.001C455 356.309 356.309 455 235 455z">
		</path>
	</symbol>
	<symbol xmlns="http://www.w3.org/2000/svg" viewBox="0 0 19.481 19.481" id="star">
		<path d="M10.201.758l2.478 5.865 6.344.545a.5.5 0 0 1 .285.876l-4.812 4.169 1.442 6.202a.5.5 0 0 1-.745.541l-5.452-3.288-5.452 3.288a.5.5 0 0 1-.745-.541l1.442-6.202-4.813-4.17a.5.5 0 0 1 .285-.876l6.344-.545L9.28.758a.5.5 0 0 1 .921 0z">
		</path>
	</symbol>
	<symbol xmlns="http://www.w3.org/2000/svg" viewBox="0 0 512 512" id="additional-education">
		<path d="M452 38.5h30v105h-30zm0 135h30v105h-30zm0 135h30v105h-30zM75 0C50.187 0 30 20.187 30 45v452c0-24.813 20.187-45 45-45h15V0H75zm45 0h302v452H120zM75 482c-8.271 0-15 6.729-15 15s6.729 15 15 15h317v-30H75z">
		</path>
	</symbol>
</svg>
